<?xml version="1.0" encoding="UTF-8" standalone="no"?>
<!DOCTYPE svg PUBLIC "-//W3C//DTD SVG 1.1//EN"
 "http://www.w3.org/Graphics/SVG/1.1/DTD/svg11.dtd">
<!-- Generated by graphviz version 2.40.1 (20161225.0304)
 -->
<!-- Title: G Pages: 1 -->
<svg width="420pt" height="221pt"
 viewBox="0.00 0.00 420.13 221.03" xmlns="http://www.w3.org/2000/svg" xmlns:xlink="http://www.w3.org/1999/xlink">
<g id="graph0" class="graph" transform="scale(1 1) rotate(0) translate(4 217.0288)">
<title>G</title>
<polygon fill="#ffffff" stroke="transparent" points="-4,4 -4,-217.0288 416.1315,-217.0288 416.1315,4 -4,4"/>
<!-- CSM -->
<g id="node1" class="node">
<title>CSM</title>
<polygon fill="none" stroke="#000000" points="90.3949,-212.7778 -.1319,-212.7778 -.1319,-122.251 90.3949,-122.251 90.3949,-212.7778"/>
<text text-anchor="middle" x="45.1315" y="-171.7144" font-family="Times,serif" font-size="14.00" fill="#000000">Cascaded </text>
<text text-anchor="middle" x="45.1315" y="-154.9144" font-family="Times,serif" font-size="14.00" fill="#000000">Shadow Map</text>
</g>
<!-- GDRC -->
<g id="node2" class="node">
<title>GDRC</title>
<polygon fill="none" stroke="#000000" points="199.6603,-213.0432 108.6027,-213.0432 108.6027,-121.9856 199.6603,-121.9856 199.6603,-213.0432"/>
<text text-anchor="middle" x="154.1315" y="-171.7144" font-family="Times,serif" font-size="14.00" fill="#000000">GPU&#45;Driven </text>
<text text-anchor="middle" x="154.1315" y="-154.9144" font-family="Times,serif" font-size="14.00" fill="#000000">Culling</text>
</g>
<!-- CSM&#45;&gt;GDRC -->
<g id="edge1" class="edge">
<title>CSM&#45;&gt;GDRC</title>
<path fill="none" stroke="#000000" d="M90.2643,-167.5144C92.8839,-167.5144 95.5034,-167.5144 98.123,-167.5144"/>
<polygon fill="#000000" stroke="#000000" points="98.227,-171.0145 108.227,-167.5144 98.2269,-164.0145 98.227,-171.0145"/>
</g>
<!-- GB -->
<g id="node3" class="node">
<title>GB</title>
<polygon fill="none" stroke="#000000" points="308.1315,-212.5144 218.1315,-212.5144 218.1315,-122.5144 308.1315,-122.5144 308.1315,-212.5144"/>
<text text-anchor="middle" x="263.1315" y="-163.3144" font-family="Times,serif" font-size="14.00" fill="#000000">G&#45;Buffer</text>
</g>
<!-- GDRC&#45;&gt;GB -->
<g id="edge2" class="edge">
<title>GDRC&#45;&gt;GB</title>
<path fill="none" stroke="#000000" d="M199.6901,-167.5144C202.46,-167.5144 205.2299,-167.5144 207.9997,-167.5144"/>
<polygon fill="#000000" stroke="#000000" points="208.0287,-171.0145 218.0286,-167.5144 208.0286,-164.0145 208.0287,-171.0145"/>
</g>
<!-- SSAO -->
<g id="node4" class="node">
<title>SSAO</title>
<polygon fill="none" stroke="#000000" points="412.1315,-210.5144 326.1315,-210.5144 326.1315,-124.5144 412.1315,-124.5144 412.1315,-210.5144"/>
<text text-anchor="middle" x="369.1315" y="-163.3144" font-family="Times,serif" font-size="14.00" fill="#000000">SSAO</text>
</g>
<!-- GB&#45;&gt;SSAO -->
<g id="edge3" class="edge">
<title>GB&#45;&gt;SSAO</title>
<path fill="none" stroke="#000000" d="M308.2643,-167.5144C310.7385,-167.5144 313.2127,-167.5144 315.687,-167.5144"/>
<polygon fill="#000000" stroke="#000000" points="315.8588,-171.0145 325.8587,-167.5144 315.8587,-164.0145 315.8588,-171.0145"/>
</g>
<!-- DF -->
<g id="node5" class="node">
<title>DF</title>
<polygon fill="none" stroke="#000000" points="412.1315,-86 326.1315,-86 326.1315,0 412.1315,0 412.1315,-86"/>
<text text-anchor="middle" x="369.1315" y="-47.2" font-family="Times,serif" font-size="14.00" fill="#000000">Deferred</text>
<text text-anchor="middle" x="369.1315" y="-30.4" font-family="Times,serif" font-size="14.00" fill="#000000"> Shading</text>
</g>
<!-- SSAO&#45;&gt;DF -->
<g id="edge4" class="edge">
<title>SSAO&#45;&gt;DF</title>
<path fill="none" stroke="#000000" d="M369.1315,-124.3148C369.1315,-115.2363 369.1315,-105.5594 369.1315,-96.1649"/>
<polygon fill="#000000" stroke="#000000" points="372.6316,-96.1233 369.1315,-86.1233 365.6316,-96.1233 372.6316,-96.1233"/>
</g>
<!-- TM -->
<g id="node6" class="node">
<title>TM</title>
<polygon fill="none" stroke="#000000" points="308.1315,-86 222.1315,-86 222.1315,0 308.1315,0 308.1315,-86"/>
<text text-anchor="middle" x="265.1315" y="-47.2" font-family="Times,serif" font-size="14.00" fill="#000000">Tone </text>
<text text-anchor="middle" x="265.1315" y="-30.4" font-family="Times,serif" font-size="14.00" fill="#000000">Mapping</text>
</g>
<!-- TM&#45;&gt;DF -->
<g id="edge5" class="edge">
<title>TM&#45;&gt;DF</title>
<path fill="none" stroke="#000000" d="M318.3775,-43C320.8546,-43 323.3317,-43 325.8087,-43"/>
<polygon fill="#000000" stroke="#000000" points="318.194,-39.5001 308.194,-43 318.194,-46.5001 318.194,-39.5001"/>
</g>
<!-- TAA -->
<g id="node7" class="node">
<title>TAA</title>
<polygon fill="none" stroke="#000000" points="204.1315,-86 118.1315,-86 118.1315,0 204.1315,0 204.1315,-86"/>
<text text-anchor="middle" x="161.1315" y="-38.8" font-family="Times,serif" font-size="14.00" fill="#000000">TAA</text>
</g>
<!-- TAA&#45;&gt;TM -->
<g id="edge6" class="edge">
<title>TAA&#45;&gt;TM</title>
<path fill="none" stroke="#000000" d="M214.3775,-43C216.8546,-43 219.3317,-43 221.8087,-43"/>
<polygon fill="#000000" stroke="#000000" points="214.194,-39.5001 204.194,-43 214.194,-46.5001 214.194,-39.5001"/>
</g>
<!-- OIT -->
<g id="node8" class="node">
<title>OIT</title>
<polygon fill="none" stroke="#000000" points="100.1315,-86 14.1315,-86 14.1315,0 100.1315,0 100.1315,-86"/>
<text text-anchor="middle" x="57.1315" y="-38.8" font-family="Times,serif" font-size="14.00" fill="#000000">OITPPLL</text>
</g>
<!-- OIT&#45;&gt;TAA -->
<g id="edge7" class="edge">
<title>OIT&#45;&gt;TAA</title>
<path fill="none" stroke="#000000" d="M110.3775,-43C112.8546,-43 115.3317,-43 117.8087,-43"/>
<polygon fill="#000000" stroke="#000000" points="110.194,-39.5001 100.194,-43 110.194,-46.5001 110.194,-39.5001"/>
</g>
</g>
</svg>
