<?xml version="1.0" encoding="UTF-8" standalone="no"?>
<!DOCTYPE svg PUBLIC "-//W3C//DTD SVG 1.1//EN"
 "http://www.w3.org/Graphics/SVG/1.1/DTD/svg11.dtd">
<!-- Generated by graphviz version 2.40.1 (20161225.0304)
 -->
<!-- Title: G Pages: 1 -->
<svg width="418pt" height="221pt"
 viewBox="0.00 0.00 417.51 221.03" xmlns="http://www.w3.org/2000/svg" xmlns:xlink="http://www.w3.org/1999/xlink">
<g id="graph0" class="graph" transform="scale(1 1) rotate(0) translate(4 217.0288)">
<title>G</title>
<polygon fill="#ffffff" stroke="transparent" points="-4,4 -4,-217.0288 413.5144,-217.0288 413.5144,4 -4,4"/>
<!-- GDC -->
<g id="node1" class="node">
<title>GDC</title>
<polygon fill="none" stroke="#000000" points="91.0432,-213.0432 -.0144,-213.0432 -.0144,-121.9856 91.0432,-121.9856 91.0432,-213.0432"/>
<text text-anchor="middle" x="45.5144" y="-171.7144" font-family="Times,serif" font-size="14.00" fill="#000000">GPU&#45;Driven </text>
<text text-anchor="middle" x="45.5144" y="-154.9144" font-family="Times,serif" font-size="14.00" fill="#000000">Culling</text>
</g>
<!-- SM -->
<g id="node2" class="node">
<title>SM</title>
<polygon fill="none" stroke="#000000" points="199.7778,-212.7778 109.251,-212.7778 109.251,-122.251 199.7778,-122.251 199.7778,-212.7778"/>
<text text-anchor="middle" x="154.5144" y="-163.3144" font-family="Times,serif" font-size="14.00" fill="#000000">Shadow Map</text>
</g>
<!-- GDC&#45;&gt;SM -->
<g id="edge1" class="edge">
<title>GDC&#45;&gt;SM</title>
<path fill="none" stroke="#000000" d="M91.073,-167.5144C93.6751,-167.5144 96.2772,-167.5144 98.8793,-167.5144"/>
<polygon fill="#000000" stroke="#000000" points="98.9159,-171.0145 108.9159,-167.5144 98.9159,-164.0145 98.9159,-171.0145"/>
</g>
<!-- NM -->
<g id="node3" class="node">
<title>NM</title>
<polygon fill="none" stroke="#000000" points="305.4366,-211.4366 217.5922,-211.4366 217.5922,-123.5922 305.4366,-123.5922 305.4366,-211.4366"/>
<text text-anchor="middle" x="261.5144" y="-163.3144" font-family="Times,serif" font-size="14.00" fill="#000000">Normal Map</text>
</g>
<!-- SM&#45;&gt;NM -->
<g id="edge2" class="edge">
<title>SM&#45;&gt;NM</title>
<path fill="none" stroke="#000000" d="M199.655,-167.5144C202.2627,-167.5144 204.8704,-167.5144 207.4781,-167.5144"/>
<polygon fill="#000000" stroke="#000000" points="207.5363,-171.0145 217.5363,-167.5144 207.5362,-164.0145 207.5363,-171.0145"/>
</g>
<!-- SSAO -->
<g id="node4" class="node">
<title>SSAO</title>
<polygon fill="none" stroke="#000000" points="409.5144,-210.5144 323.5144,-210.5144 323.5144,-124.5144 409.5144,-124.5144 409.5144,-210.5144"/>
<text text-anchor="middle" x="366.5144" y="-163.3144" font-family="Times,serif" font-size="14.00" fill="#000000">SSAO</text>
</g>
<!-- NM&#45;&gt;SSAO -->
<g id="edge3" class="edge">
<title>NM&#45;&gt;SSAO</title>
<path fill="none" stroke="#000000" d="M305.8113,-167.5144C308.2788,-167.5144 310.7464,-167.5144 313.2139,-167.5144"/>
<polygon fill="#000000" stroke="#000000" points="313.3583,-171.0145 323.3583,-167.5144 313.3582,-164.0145 313.3583,-171.0145"/>
</g>
<!-- Fr -->
<g id="node5" class="node">
<title>Fr</title>
<polygon fill="none" stroke="#000000" points="409.5144,-86 323.5144,-86 323.5144,0 409.5144,0 409.5144,-86"/>
<text text-anchor="middle" x="366.5144" y="-38.8" font-family="Times,serif" font-size="14.00" fill="#000000">Frame</text>
</g>
<!-- SSAO&#45;&gt;Fr -->
<g id="edge4" class="edge">
<title>SSAO&#45;&gt;Fr</title>
<path fill="none" stroke="#000000" d="M366.5144,-124.3148C366.5144,-115.2363 366.5144,-105.5594 366.5144,-96.1649"/>
<polygon fill="#000000" stroke="#000000" points="370.0145,-96.1233 366.5144,-86.1233 363.0145,-96.1233 370.0145,-96.1233"/>
</g>
<!-- TM -->
<g id="node6" class="node">
<title>TM</title>
<polygon fill="none" stroke="#000000" points="305.5144,-86 219.5144,-86 219.5144,0 305.5144,0 305.5144,-86"/>
<text text-anchor="middle" x="262.5144" y="-47.2" font-family="Times,serif" font-size="14.00" fill="#000000">Tone </text>
<text text-anchor="middle" x="262.5144" y="-30.4" font-family="Times,serif" font-size="14.00" fill="#000000">Mapping</text>
</g>
<!-- TM&#45;&gt;Fr -->
<g id="edge5" class="edge">
<title>TM&#45;&gt;Fr</title>
<path fill="none" stroke="#000000" d="M315.7604,-43C318.2375,-43 320.7146,-43 323.1916,-43"/>
<polygon fill="#000000" stroke="#000000" points="315.5769,-39.5001 305.5769,-43 315.5769,-46.5001 315.5769,-39.5001"/>
</g>
<!-- TAA -->
<g id="node7" class="node">
<title>TAA</title>
<polygon fill="none" stroke="#000000" points="201.5144,-86 115.5144,-86 115.5144,0 201.5144,0 201.5144,-86"/>
<text text-anchor="middle" x="158.5144" y="-38.8" font-family="Times,serif" font-size="14.00" fill="#000000">TAA</text>
</g>
<!-- TAA&#45;&gt;TM -->
<g id="edge6" class="edge">
<title>TAA&#45;&gt;TM</title>
<path fill="none" stroke="#000000" d="M211.7604,-43C214.2375,-43 216.7146,-43 219.1916,-43"/>
<polygon fill="#000000" stroke="#000000" points="211.5769,-39.5001 201.5769,-43 211.5769,-46.5001 211.5769,-39.5001"/>
</g>
</g>
</svg>
